<svg xmlns="http://www.w3.org/2000/svg" xmlns:xlink="http://www.w3.org/1999/xlink" width="256" zoomAndPan="magnify" viewBox="0 0 192 191.999996" height="256" preserveAspectRatio="xMidYMid meet" version="1.0"><defs><clipPath id="8566a7af74"><path d="M 1.984375 1.984375 L 190.015625 1.984375 L 190.015625 190.015625 L 1.984375 190.015625 Z M 1.984375 1.984375 " clip-rule="nonzero"/></clipPath><clipPath id="81e84a5e00"><path d="M 96 1.984375 C 44.078125 1.984375 1.984375 44.078125 1.984375 96 C 1.984375 147.921875 44.078125 190.015625 96 190.015625 C 147.921875 190.015625 190.015625 147.921875 190.015625 96 C 190.015625 44.078125 147.921875 1.984375 96 1.984375 Z M 96 1.984375 " clip-rule="nonzero"/></clipPath><clipPath id="852c476ab2"><path d="M 0.984375 0.984375 L 189.015625 0.984375 L 189.015625 189.015625 L 0.984375 189.015625 Z M 0.984375 0.984375 " clip-rule="nonzero"/></clipPath><clipPath id="1e150e6cd5"><path d="M 95 0.984375 C 43.078125 0.984375 0.984375 43.078125 0.984375 95 C 0.984375 146.921875 43.078125 189.015625 95 189.015625 C 146.921875 189.015625 189.015625 146.921875 189.015625 95 C 189.015625 43.078125 146.921875 0.984375 95 0.984375 Z M 95 0.984375 " clip-rule="nonzero"/></clipPath><clipPath id="89ab89fb0e"><rect x="0" width="190" y="0" height="190"/></clipPath><clipPath id="78b8ce609c"><path d="M 51.589844 48.53125 L 153.589844 48.53125 L 153.589844 143.78125 L 51.589844 143.78125 Z M 51.589844 48.53125 " clip-rule="nonzero"/></clipPath></defs><g clip-path="url(#8566a7af74)"><g clip-path="url(#81e84a5e00)"><g transform="matrix(1, 0, 0, 1, 1, 1)"><g clip-path="url(#89ab89fb0e)"><g clip-path="url(#852c476ab2)"><g clip-path="url(#1e150e6cd5)"><path fill="#004aad" d="M 0.984375 0.984375 L 189.015625 0.984375 L 189.015625 189.015625 L 0.984375 189.015625 Z M 0.984375 0.984375 " fill-opacity="1" fill-rule="nonzero"/></g></g></g></g></g></g><g clip-path="url(#78b8ce609c)"><path fill="#ffffff" d="M 51.621094 140.066406 L 51.625 140.195312 C 51.640625 140.769531 51.808594 141.3125 52.082031 141.78125 C 52.167969 141.925781 52.261719 142.066406 52.367188 142.199219 C 52.625 142.519531 52.9375 142.789062 53.28125 142.992188 L 53.296875 143 C 53.78125 143.285156 54.339844 143.453125 54.9375 143.464844 L 136.382812 143.464844 C 137.972656 143.464844 139.351562 142.359375 139.691406 140.8125 L 153.253906 79.78125 C 153.480469 78.78125 153.234375 77.726562 152.589844 76.925781 C 151.945312 76.125 150.972656 75.65625 149.945312 75.65625 L 139.773438 75.65625 L 139.773438 62.09375 C 139.773438 60.222656 138.253906 58.703125 136.382812 58.703125 L 120.371094 58.703125 C 120.371094 58.703125 104.222656 49.019531 104.222656 49.019531 C 103.695312 48.699219 103.09375 48.53125 102.480469 48.53125 L 55.011719 48.53125 C 53.140625 48.53125 51.621094 50.050781 51.621094 51.921875 Z M 71.292969 82.4375 L 145.71875 82.4375 L 133.664062 136.683594 C 133.664062 136.683594 59.238281 136.683594 59.238281 136.683594 C 59.238281 136.683594 71.292969 82.4375 71.292969 82.4375 Z M 88.917969 102.78125 C 87.046875 102.78125 85.527344 104.300781 85.527344 106.171875 L 85.527344 129.90625 C 85.527344 131.777344 87.046875 133.296875 88.917969 133.296875 L 116.039062 133.296875 C 117.914062 133.296875 119.429688 131.777344 119.429688 129.90625 L 119.429688 106.171875 C 119.429688 104.300781 117.914062 102.78125 116.039062 102.78125 L 116.039062 97.503906 C 116.039062 91.238281 110.226562 85.828125 102.707031 85.828125 L 102.25 85.828125 C 94.730469 85.828125 88.917969 91.238281 88.917969 97.503906 Z M 112.652344 109.5625 L 112.652344 126.515625 C 112.652344 126.515625 92.308594 126.515625 92.308594 126.515625 C 92.308594 126.515625 92.308594 109.5625 92.308594 109.5625 Z M 99.089844 115.070312 L 99.089844 121.003906 C 99.089844 122.875 100.605469 124.394531 102.480469 124.394531 C 104.351562 124.394531 105.871094 122.875 105.871094 121.003906 L 105.871094 115.070312 C 105.871094 113.199219 104.351562 111.679688 102.480469 111.679688 C 100.605469 111.679688 99.089844 113.199219 99.089844 115.070312 Z M 132.992188 75.65625 L 132.992188 65.484375 L 119.429688 65.484375 C 118.816406 65.484375 118.214844 65.320312 117.6875 65 C 117.6875 65 101.539062 55.3125 101.539062 55.3125 C 101.539062 55.3125 58.402344 55.3125 58.402344 55.3125 L 58.402344 109.1875 L 65.265625 78.3125 C 65.605469 76.761719 66.984375 75.65625 68.574219 75.65625 Z M 109.261719 97.503906 L 109.261719 102.78125 C 109.261719 102.78125 95.699219 102.78125 95.699219 102.78125 C 95.699219 102.78125 95.699219 97.503906 95.699219 97.503906 C 95.699219 94.613281 98.78125 92.609375 102.25 92.609375 L 102.707031 92.609375 C 106.179688 92.609375 109.261719 94.613281 109.261719 97.503906 Z M 109.261719 97.503906 " fill-opacity="1" fill-rule="evenodd"/></g></svg>